<?xml version="1.0" encoding="UTF-8" standalone="no"?>
<!-- Created with Inkscape (http://www.inkscape.org/) -->

<svg
   version="1.1"
   id="svg1"
   width="1000"
   height="208.45596"
   viewBox="0 0 1000 208.45596"
   xml:space="preserve"
   sodipodi:docname="WBFS.svg"
   inkscape:version="1.4 (86a8ad7, 2024-10-11)"
   xmlns:inkscape="http://www.inkscape.org/namespaces/inkscape"
   xmlns:sodipodi="http://sodipodi.sourceforge.net/DTD/sodipodi-0.dtd"
   xmlns="http://www.w3.org/2000/svg"
   xmlns:svg="http://www.w3.org/2000/svg"><sodipodi:namedview
     id="namedview1"
     pagecolor="#ffffff"
     bordercolor="#000000"
     borderopacity="0.25"
     inkscape:showpageshadow="2"
     inkscape:pageopacity="0.0"
     inkscape:pagecheckerboard="0"
     inkscape:deskcolor="#d1d1d1"
     inkscape:zoom="1.1561196"
     inkscape:cx="779.33114"
     inkscape:cy="283.27519"
     inkscape:window-width="3440"
     inkscape:window-height="1377"
     inkscape:window-x="-8"
     inkscape:window-y="-8"
     inkscape:window-maximized="1"
     inkscape:current-layer="svg1" /><defs
     id="defs1"><style
       id="style1">.cls-1{fill:#fff;stroke-width:0px;}</style></defs><path
     style="font-weight:900;font-size:54.288px;line-height:0.9;font-family:'F37 Bolton';-inkscape-font-specification:'F37 Bolton Heavy';text-align:center;letter-spacing:3.393px;text-anchor:middle;fill:#ff4500;fill-opacity:1;stroke-width:82.9509;stroke-linecap:square;paint-order:markers stroke fill"
     d="m 947.50188,167.96101 q -26.33687,0 -37.92509,-10.71032 -11.58826,-10.88594 -11.58826,-34.76469 h 34.94025 q 0,10.71032 3.51157,15.80213 3.68719,5.09181 11.76384,5.09181 7.72545,0 11.58822,-4.21391 3.86271,-4.21391 3.86271,-11.76381 0,-8.2522 -5.26737,-11.23705 -5.09178,-3.16042 -14.92423,-3.16042 h -4.74061 V 90.003863 h 2.45811 q 9.48125,0 14.22189,-2.2825 4.74064,-2.45811 4.74064,-10.53476 0,-7.37434 -3.68715,-10.00801 -3.68716,-2.80925 -8.95452,-2.80925 -6.32086,0 -9.48128,4.38949 -3.16043,4.21389 -3.16043,14.04631 h -34.94025 q 0,-43.01687 48.45986,-43.01687 21.59619,0 34.76463,7.90106 13.34402,7.90107 13.34402,24.05431 0,22.47416 -26.33687,27.91709 v 1.053477 q 14.22192,2.80926 21.9474,9.48125 7.90104,6.49644 7.90104,20.01605 0,18.4358 -13.69513,28.09267 -13.51961,9.65683 -38.80299,9.65683 z"
     id="path6" /><path
     style="font-weight:900;font-size:54.288px;line-height:0.9;font-family:'F37 Bolton';-inkscape-font-specification:'F37 Bolton Heavy';text-align:center;letter-spacing:3.393px;text-anchor:middle;fill:#ff4500;fill-opacity:1;stroke-width:82.9509;stroke-linecap:square;paint-order:markers stroke fill"
     d="m 839.65441,167.96101 q -26.33687,0 -37.92509,-10.71032 Q 790.1411,146.36475 790.1411,122.486 h 34.94022 q 0,10.71032 3.5116,15.80213 3.68715,5.09181 11.76381,5.09181 7.72545,0 11.58822,-4.21391 3.86271,-4.21391 3.86271,-11.76381 0,-8.2522 -5.26737,-11.23705 -5.09178,-3.16042 -14.92424,-3.16042 h -4.74061 V 90.003863 h 2.45812 q 9.48125,0 14.22192,-2.2825 4.74061,-2.45811 4.74061,-10.53476 0,-7.37434 -3.68719,-10.00801 -3.68712,-2.80925 -8.95449,-2.80925 -6.32085,0 -9.48131,4.38949 -3.1604,4.21389 -3.1604,14.04631 h -34.94025 q 0,-43.01687 48.45986,-43.01687 21.5962,0 34.76463,7.90106 13.34403,7.90107 13.34403,24.05431 0,22.47416 -26.33687,27.91709 v 1.053477 q 14.22192,2.80926 21.9474,9.48125 7.90106,6.49644 7.90106,20.01605 0,18.4358 -13.69519,28.09267 -13.51957,9.65683 -38.80296,9.65683 z"
     id="path5" /><path
     style="font-weight:900;font-size:54.288px;line-height:0.9;font-family:'F37 Bolton';-inkscape-font-specification:'F37 Bolton Heavy';text-align:center;letter-spacing:3.393px;text-anchor:middle;fill:#ffffff;fill-opacity:1;stroke-width:78.5662;stroke-linecap:square;paint-order:markers stroke fill"
     d="M 778.5159,165.46654 H 740.93249 V 46.230673 h 37.58341 z"
     id="path4" /><path
     style="font-weight:900;font-size:54.288px;line-height:0.9;font-family:'F37 Bolton';-inkscape-font-specification:'F37 Bolton Heavy';text-align:center;letter-spacing:3.393px;text-anchor:middle;fill:#ffffff;fill-opacity:1;stroke-width:78.5662;stroke-linecap:square;paint-order:markers stroke fill"
     d="M 601.16423,165.46654 V 46.230673 h 48.3928 l 10.1442,23.78064 q 4.49004,10.64311 5.82044,16.46355 h 0.9978 q 2.32817,-8.14864 5.82044,-16.29725 l 10.14417,-23.94694 h 48.3928 V 165.46654 H 695.45536 V 86.807443 h -0.99779 q -2.32817,8.31491 -6.31933,17.627617 l -10.1442,23.61437 H 654.0471 l -10.31051,-24.11325 q -4.49006,-10.144197 -6.15304,-17.128737 h -0.99777 v 78.659097 z"
     id="path3" /><path
     style="font-weight:900;font-size:54.288px;line-height:0.9;font-family:'F37 Bolton';-inkscape-font-specification:'F37 Bolton Heavy';text-align:center;letter-spacing:3.393px;text-anchor:middle;fill:#ffffff;fill-opacity:1;stroke-width:78.5662;stroke-linecap:square;paint-order:markers stroke fill"
     d="M 594.12633,165.46654 H 559.37 l -7.48342,-22.11769 h -39.0801 l -8.14861,22.11769 H 470.89931 L 514.30316,46.230673 h 39.57898 z m -72.67236,-46.06463 h 22.284 L 540.2457,109.0914 q -5.32156,-15.465717 -6.81824,-22.283957 h -0.99779 q -0.9978,4.49007 -2.82706,9.81159 -1.66298,5.155257 -4.32376,12.472367 z"
     id="path2" /><path
     style="font-weight:900;font-size:54.288px;line-height:0.9;font-family:'F37 Bolton';-inkscape-font-specification:'F37 Bolton Heavy';text-align:center;letter-spacing:3.393px;text-anchor:middle;fill:#ffffff;fill-opacity:1;stroke-width:78.5662;stroke-linecap:square;paint-order:markers stroke fill"
     d="M 463.97306,165.46654 H 426.38968 V 46.230673 h 37.58338 z"
     id="path1" /><path
     style="font-weight:900;font-size:54.288px;line-height:0.9;font-family:'F37 Bolton';-inkscape-font-specification:'F37 Bolton Heavy';text-align:center;letter-spacing:3.393px;text-anchor:middle;fill:#ffffff;fill-opacity:1;stroke-width:78.5662;stroke-linecap:square;paint-order:markers stroke fill"
     d="M 285.67833,165.46654 V 46.230673 h 48.3928 l 10.14417,23.78064 q 4.49007,10.64311 5.82044,16.46355 h 0.9978 q 2.32817,-8.14864 5.82044,-16.29725 l 10.1442,-23.94694 h 48.3928 V 165.46654 H 379.96943 V 86.807443 h -0.99779 q -2.32817,8.31491 -6.31933,17.627617 l -10.1442,23.61437 h -23.94694 l -10.31048,-24.11325 q -4.49006,-10.144197 -6.15304,-17.128737 h -0.9978 v 78.659097 z"
     id="text1" /><path
     d="m 234.60509,46.230673 v 67.504507 c 0,6.15771 -2.83612,13.35444 -10.82492,13.35444 -7.9888,0 -11.02079,-7.19673 -11.02079,-13.35444 V 46.230673 h -37.93403 v 67.504507 c 0,6.15771 -2.88725,13.35444 -11.0123,13.35444 -8.12508,0 -10.82492,-7.19673 -10.82492,-13.35444 V 46.230673 H 115.0541 v 59.924537 c -0.1789,11.54034 -8.50833,21.17288 -18.58376,21.50503 H 57.05436 c -10.55237,0 -19.13736,-9.74325 -19.13736,-21.70944 0,-11.966167 8.58499,-21.896797 19.13736,-21.896797 H 94.11969 V 46.230673 H 57.05436 C 25.60164,46.230673 0,73.016153 0,105.9508 c 0,32.93464 25.60164,59.51574 57.06287,59.51574 h 38.0533 c 12.7412,0 25.5761,-5.15271 35.36193,-13.57585 9.30891,9.24075 19.47802,13.57585 31.69972,13.57585 12.22168,0 22.35672,-4.30952 31.63156,-13.49069 9.27485,9.18117 19.41841,13.49069 31.62305,13.49069 26.41927,0 47.10669,-21.67538 47.10669,-49.35516 V 46.230673 Z"
     class="cls-1"
     id="path3-1"
     style="fill:#ff4500;fill-opacity:1" /></svg>
