<?xml version="1.0" encoding="UTF-8" standalone="no"?>
<!-- Created with Inkscape (http://www.inkscape.org/) -->

<svg
   width="475"
   height="150"
   viewBox="0 0 125.67699 39.687489"
   version="1.1"
   id="svg5"
   xml:space="preserve"
   inkscape:version="1.2.1 (9c6d41e, 2022-07-14)"
   sodipodi:docname="nsl.svg"
   xmlns:inkscape="http://www.inkscape.org/namespaces/inkscape"
   xmlns:sodipodi="http://sodipodi.sourceforge.net/DTD/sodipodi-0.dtd"
   xmlns="http://www.w3.org/2000/svg"
   xmlns:svg="http://www.w3.org/2000/svg"><sodipodi:namedview
     id="namedview7"
     pagecolor="#ffffff"
     bordercolor="#000000"
     borderopacity="0.25"
     inkscape:showpageshadow="2"
     inkscape:pageopacity="0.0"
     inkscape:pagecheckerboard="0"
     inkscape:deskcolor="#d1d1d1"
     inkscape:document-units="mm"
     showgrid="false"
     inkscape:zoom="0.914906"
     inkscape:cx="290.19375"
     inkscape:cy="58.475952"
     inkscape:window-width="1390"
     inkscape:window-height="1205"
     inkscape:window-x="244"
     inkscape:window-y="25"
     inkscape:window-maximized="0"
     inkscape:current-layer="layer1" /><defs
     id="defs2" /><g
     inkscape:label="Layer 1"
     inkscape:groupmode="layer"
     id="layer1"
     transform="translate(18.05761,-132.89263)"><g
       style="fill:none"
       id="g1168"
       transform="matrix(0.26458333,0,0,0.26458333,-14.298117,135.78455)"><path
         d="M 314.971,36.6462 279.653,129.334 H 414.157 L 428.11,92.6876 h -88.09 c -3.408,0 -5.761,-3.3968 -4.553,-6.5706 L 368.285,0 h -147.49 c -15.811,0 -29.979,9.73745 -35.589,24.4621 l -22.3,58.5255 h 75.658 c 3.408,0 5.761,3.3968 4.552,6.5707 -0.718,1.8836 -2.529,3.1269 -4.552,3.1269 h -84.643 c -3.407,0 -5.76,-3.3967 -4.552,-6.5706 L 182.182,0 H 76.7911 C 60.2327,0 45.3983,10.1972 39.5224,25.6162 L 0,129.334 h 39.3505 l 34.127,-89.5585 c 0.7183,-1.8837 2.5294,-3.1293 4.5524,-3.1293 h 43.7831 c 3.407,0 5.76,3.3967 4.552,6.5706 L 93.5496,129.334 H 241.364 c 15.617,0 29.608,-9.618 35.149,-24.16 L 298.929,46.3461 H 223.27 c -3.407,0 -5.76,-3.3967 -4.552,-6.5706 0.718,-1.8837 2.529,-3.1269 4.552,-3.1269 h 91.699 z"
         fill="#00ffb9"
         id="path1137" /><path
         d="m 412.791,74.1487 c -0.733,0 -1.463,-0.4856 -1.708,-0.9712 L 402.32,54.5541 c -1.429,-3.0355 -3.879,-5.4774 -6.928,-6.9013 L 376.695,38.924 c -0.733,-0.244 -0.975,-0.9712 -0.975,-1.7007 0,-0.7296 0.487,-1.4568 0.975,-1.7007 l 18.697,-8.7288 c 3.047,-1.4239 5.499,-3.8635 6.928,-6.9013 l 8.763,-18.62342 c 0.245,-0.729544 0.975,-0.971162 1.708,-0.971162 0.732,0 1.462,0.485582 1.707,0.971162 l 8.763,18.62342 c 1.43,3.0354 3.879,5.4774 6.929,6.9013 l 18.697,8.7288 c 0.732,0.2439 0.975,0.9711 0.975,1.7007 0,0.7295 -0.488,1.4567 -0.975,1.7007 l -18.697,8.7288 c -3.048,1.4239 -5.499,3.8635 -6.929,6.9013 l -8.763,18.6234 c -0.245,0.7295 -0.975,0.9712 -1.707,0.9712 z"
         fill="#00ffb9"
         id="path1139" /></g></g></svg>
